# xmcd
#
# Track frame offsets:
#	150
#	12117
#	25012
#	36557
#	49110
#	62650
#	73697
#	85450
#	101587
#	112562
#	125415
#	136210
#
# Disc length: 1979 seconds
#
# Revision: 0
# Processed by: cddbd v1.5.2PL0 Copyright (c) Steve Scherf et al.
# Submitted via: audiograbber 1.83.01
#
DISCID=9907b90c
DTITLE=Patti Page - The Waltz Queen
DYEAR=1900
DGENRE=
TTITLE0=What'll I Do
TTITLE1=Memories
TTITLE2=Till We Meet Again
TTITLE3=While We Are Young
TTITLE4=Remember
TTITLE5=Now Is The Hour
TTITLE6=You Always Hurt The One You Love
TTITLE7=The Boy Next Door
TTITLE8=Falling In Love With Love
TTITLE9=Let The Rest Of The World Go By
TTITLE10=You Will Find Your Love (In Paris)
TTITLE11=Wondering
EXTD=
EXTT0=
EXTT1=
EXTT2=
EXTT3=
EXTT4=
EXTT5=
EXTT6=
EXTT7=
EXTT8=
EXTT9=
EXTT10=
EXTT11=
PLAYORDER=
